<svg id="Layer_1" data-name="Layer 1" xmlns="http://www.w3.org/2000/svg" viewBox="0 0 1024 1024"><defs><style>.cls-1{fill:#fff;}</style></defs><path class="cls-1" d="M847.45,229.52H971a53,53,0,0,0,53-53V53A53,53,0,0,0,971,0H847.45a53.06,53.06,0,0,0-53,53,88.4,88.4,0,0,1-88.27,88.27V105.93A53,53,0,0,0,706.21,0H582.62a53,53,0,0,0-53,53V176.55a53,53,0,0,0,53,53v35.31A88.15,88.15,0,0,1,512,229.45a88.2,88.2,0,0,1-70.62,35.38V229.52a53,53,0,0,0,53-53V53a53,53,0,0,0-53-53H317.79a53,53,0,0,0,0,105.93v35.31A88.37,88.37,0,0,1,229.52,53a53,53,0,0,0-53-53H53A53,53,0,0,0,0,53V176.55a53,53,0,0,0,53,53H176.55a88.37,88.37,0,0,1,88.28,88.27H229.52a53,53,0,0,0-53-53H53a53,53,0,0,0-53,53V441.38a53,53,0,0,0,105.93,0h35.31A88.2,88.2,0,0,1,105.86,512a88.15,88.15,0,0,1,35.38,70.62H105.93A53,53,0,0,0,0,582.62V971a53,53,0,0,0,53,53H176.55a53,53,0,0,0,53-53V847.45a88.36,88.36,0,0,1,88.27-88.28v35.31a53,53,0,0,0-53,53V971a53,53,0,0,0,53,53H441.38a53,53,0,0,0,0-105.93V882.76A88.2,88.2,0,0,1,512,918.14a88.15,88.15,0,0,1,70.62-35.38v35.31a53,53,0,0,0,0,105.93H706.21a53,53,0,0,0,53-53V847.45a53,53,0,0,0-53-53V759.17a88.38,88.38,0,0,1,88.27,88.28V971a53,53,0,0,0,53,53H971a53,53,0,0,0,53-53V582.62a53,53,0,0,0-105.93,0H882.76A88.22,88.22,0,0,1,918.1,512a88.28,88.28,0,0,1-35.34-70.62h35.31a53,53,0,0,0,105.93,0V317.79a53,53,0,0,0-53-53H847.45a53,53,0,0,0-53,53H759.17A88.36,88.36,0,0,1,847.45,229.52ZM247.17,608V558.22l64.55-37-64.55-37.29V434.56L388.8,521.18ZM597.42,730.64H426.58v-68.5H597.42ZM776.83,434.56v49.33l-64.59,37.29,64.59,37V608L635.2,521.18Z"/></svg>