<svg id="Layer_1" data-name="Layer 1" xmlns="http://www.w3.org/2000/svg" viewBox="0 0 300 65"><defs><style>.cls-1{fill:#fff;}</style></defs><path class="cls-1" d="M0,32.58V.46H14.18A9.69,9.69,0,0,1,23.69,10a9.44,9.44,0,0,1-2.06,5.78,9.59,9.59,0,0,1,3.64,7.37,9.57,9.57,0,0,1-9.42,9.42ZM12.51,13a2.78,2.78,0,0,0,0-5.56H8.44V13Zm1.58,12.64a2.78,2.78,0,0,0,2.79-2.78,2.84,2.84,0,0,0-2.79-2.79H8.44v5.57Z"/><path class="cls-1" d="M30.33.46h8.43V24.1H50.33v8.48h-20Z"/><path class="cls-1" d="M70.46.46a16.06,16.06,0,1,1-16,16.1A16.09,16.09,0,0,1,70.46.46Zm0,8.39a7.67,7.67,0,1,0,7.67,7.67A7.65,7.65,0,0,0,70.46,8.85Z"/><path class="cls-1" d="M114.06,21.14l-5.31,11.44h-6.08L87.85.46H97.1l9.08,19.65,6.13-13.36h3.55L122,20.11,131.11.46h9.25L125.5,32.58h-6.08Z"/><path class="cls-1" d="M167.65,32.58,152.48,17.37V32.58h-8.43V.46h3.42l15.21,15.16V.46h8.44V32.58Z"/><path class="cls-1" d="M196.86.46H217V7.39H205.3v5.23h10.32v7.15H205.3V32.58h-8.44Z"/><path class="cls-1" d="M231.47,19.77a4.2,4.2,0,1,0,8.39,0V.46h8.48V19.9a12.68,12.68,0,1,1-25.35,0V.46h8.48Z"/><path class="cls-1" d="M266.59,10.31a2.47,2.47,0,0,0-2.44-2.45,2.44,2.44,0,0,0-2.4,2.45,2.39,2.39,0,0,0,2.4,2.39,9.94,9.94,0,1,1-9.9,9.9h7.5a2.4,2.4,0,0,0,2.4,2.44,2.43,2.43,0,0,0,2.44-2.4,2.46,2.46,0,0,0-2.44-2.44,9.8,9.8,0,0,1-9.85-9.85,9.87,9.87,0,0,1,19.74,0Z"/><path class="cls-1" d="M280,.46h20v7H288.48v5.22h10.19v7.11H288.48v5.91H300v6.9H280Z"/><path class="cls-1" d="M13.86,48.68c0-2.74-2.92-4.93-6.57-4.93S.72,45.94.72,48.68s2.93,4.93,6.57,4.93c4,0,7.3,2.45,7.3,5.47s-3.27,5.46-7.3,5.46S0,62.07,0,59.05H.72c0,2.73,2.93,5,6.57,5s6.57-2.19,6.57-4.92-2.92-5-6.57-5c-4,0-7.29-2.45-7.29-5.47s3.27-5.47,7.29-5.47,7.3,2.48,7.3,5.5Z"/><path class="cls-1" d="M47.77,43.18c7.9,0,14.28,4.76,14.28,10.68S55.67,64.54,47.77,64.54,33.52,59.79,33.52,53.86,39.87,43.18,47.77,43.18Zm0,20.82c7.52,0,13.56-4.5,13.56-10.14s-6-10.14-13.56-10.14-13.52,4.5-13.52,10.14S40.25,64,47.77,64Z"/><path class="cls-1" d="M82.65,43.18h17.73v.57h-17v9.57H99.21v.57H83.37V64.54h-.72Z"/><path class="cls-1" d="M141.87,43.18v.54H131V64.54h-.72V43.72H119.38v-.54Z"/><path class="cls-1" d="M162.23,64h17.05v.54H161.51V43.18h.72Z"/><path class="cls-1" d="M264.9,48.36c0,2.17-1.79,4-4.29,4.82,3.34.62,5.81,2.9,5.81,5.58,0,3.19-3.46,5.78-7.71,5.78H243.93V43.18H258C261.78,43.18,264.9,45.51,264.9,48.36ZM258,53c3.38,0,6.15-2.08,6.15-4.62s-2.77-4.61-6.15-4.61h-13.3V53Zm-13.3.57V64h14c3.83,0,7-2.34,7-5.22s-3.12-5.21-7-5.21Z"/><path class="cls-1" d="M299.28,48.68c0-2.74-2.93-4.93-6.57-4.93s-6.57,2.19-6.57,4.93,2.92,4.93,6.57,4.93c4,0,7.29,2.45,7.29,5.47s-3.27,5.46-7.29,5.46-7.3-2.47-7.3-5.49h.73c0,2.73,2.92,5,6.57,5s6.57-2.19,6.57-4.92-2.93-5-6.57-5c-4,0-7.3-2.45-7.3-5.47s3.27-5.47,7.3-5.47,7.29,2.48,7.29,5.5Z"/><polygon class="cls-1" points="197.53 64.55 210.82 43.18 211.62 43.18 225.03 64.55 224.19 64.55 211.24 43.83 198.37 64.55 197.53 64.55"/></svg>