<?xml version="1.0" encoding="utf-8"?>
<!-- Generator: Adobe Illustrator 25.0.0, SVG Export Plug-In . SVG Version: 6.00 Build 0)  -->
<svg version="1.1" id="Layer_1" xmlns="http://www.w3.org/2000/svg" xmlns:xlink="http://www.w3.org/1999/xlink" x="0px" y="0px"
	 viewBox="0 0 1024 512" style="enable-background:new 0 0 1024 512;" xml:space="preserve">
<style type="text/css">
	.st0{enable-background:new    ;}
	.st1{fill:#003049;}
	.st2{fill:#EAE2B7;}
</style>
<g class="st0">
	<path class="st1" d="M48.1,247.3c0,5.7,1.7,10.5,5.2,14.3c3.5,3.8,7.7,7.1,12.9,10c5.1,2.9,10.6,5.6,16.5,8.2
		c5.9,2.6,11.4,5.5,16.5,8.8c5.1,3.3,9.4,7.3,12.9,11.8c3.5,4.5,5.2,10.3,5.2,17.2c0,7-2.2,12.8-6.5,17.5c-4.3,4.7-9.7,8.5-16,11.3
		c-6.3,2.9-13,4.9-20,6.1c-7,1.2-13.3,1.8-18.7,1.8c-5.4,0-10.7-0.7-16-2.3c-5.2-1.5-9.9-3.8-13.9-6.8c-4.1-3-7.3-6.8-9.9-11.5
		c-2.5-4.7-3.8-10-3.8-16c0-2.4,0.9-4.5,2.6-6.3s3.8-2.7,6.2-2.7c3.2,0,5.6,1.1,7,3.4c1.5,2.3,2.2,4.9,2.2,7.9c0,4.2,1.9,8,5.7,11.3
		c3.8,3.3,9.9,5,18.4,5c2.7,0,5.8-0.3,9.3-0.9c3.5-0.6,6.8-1.7,9.8-3.2c3-1.5,5.5-3.4,7.5-5.6c2-2.3,3-5.2,3-8.8
		c0-3.9-1.8-7.4-5.4-10.4c-3.6-3-8.1-5.8-13.3-8.4c-5.3-2.6-11-5.3-17.2-8.1c-6.2-2.9-11.9-6.3-17.2-10.4
		c-5.3-4.1-9.7-8.8-13.3-14.2c-3.6-5.4-5.4-12-5.4-19.9c0-5.1,1.2-9.6,3.6-13.5c2.4-3.9,5.6-7.1,9.7-9.7c4.1-2.6,8.8-4.5,14.2-5.9
		c5.4-1.4,11-2,16.7-2c6.6,0,13.2,0.9,19.9,2.6c6.6,1.8,12.6,4.4,17.8,7.9c5.3,3.5,9.6,7.9,12.9,13.2c3.3,5.2,5,11.5,5,18.7
		c0,2.4-0.9,4.5-2.8,6.3c-1.9,1.8-4,2.7-6.5,2.7c-5.9,0-8.8-3.2-8.8-9.5c0-7.5-3.2-13.4-9.7-17.6c-6.5-4.2-13-6.3-19.6-6.3
		c-4.5,0-8.4,1.1-11.7,3.4C49.7,238.9,48.1,242.4,48.1,247.3z"/>
	<path class="st1" d="M223.7,217c6.6,0,12.2,1.4,16.7,4.1c4.5,2.7,8.2,6.3,11.1,10.8c2.9,4.5,5,9.6,6.3,15.1c1.4,5.6,2,11.2,2,16.9
		c0,11.4-1.9,22.5-5.6,33.2c-3.8,10.7-9.1,20.2-16,28.5c-6.9,8.3-15.2,15-24.8,20.1c-9.6,5.1-20.3,7.7-32.1,7.7
		c-0.6,0-1.8,0.1-3.6,0.2c-1.8,0.2-5.3-0.1-10.4-0.7c-0.6,17.5-1.1,35.2-1.6,53.3c-0.5,18.1-1.4,36-2.9,53.7
		c-0.3,2.4-1.3,4.4-2.9,6.1c-1.7,1.7-3.7,2.5-6.1,2.5c-3.6,0-6.6-2.5-9-7.5c-2.4-5-4.4-11.3-6.1-19c-1.7-7.7-2.9-16.2-3.8-25.5
		c-0.9-9.3-1.6-18.4-2-27.1c-0.5-8.7-0.7-16.6-0.7-23.5c0-6.9,0-11.9,0-14.9s0.1-8.3,0.2-15.8c0.1-7.5,0.5-16,0.9-25.3
		c0.5-9.3,1.2-19,2.3-29.1c1.1-10.1,2.5-19.3,4.3-27.8c1.8-8.4,4.1-15.4,6.8-20.8c2.7-5.4,6-8.1,9.9-8.1c3,0,5.3,1.1,7,3.4
		c1.7,2.3,2.7,5,3.2,8.4c0.5,3.3,0.7,6.7,0.7,10.2c0,3.5,0,6.3,0,8.4c3.3-4.5,7-9,11.1-13.3c4.1-4.4,8.4-8.4,13.1-12
		c4.7-3.6,9.7-6.5,15.1-8.8C212,218.1,217.7,217,223.7,217z M168.2,286.5c0,8.1,0,16.2,0,24.2c0,8-0.2,16-0.5,24.2l10.4,0.5
		c8.1,0.3,15.2-2.6,21.2-8.8c6-6.2,10.9-13.6,14.7-22.4c3.8-8.7,6.6-17.9,8.6-27.5c2-9.6,2.9-17.6,2.9-23.9c0-6.3-0.9-12.2-2.7-17.6
		c-6,0.3-11.7,2.3-17.2,6.1c-5.4,3.8-10.5,8.2-15.1,13.3c-4.7,5.1-8.9,10.6-12.6,16.5C174.1,276.8,170.9,282,168.2,286.5z"/>
	<path class="st1" d="M338.9,215.1c8.4,0,15.7,2,21.9,6.1c6.2,4.1,11.2,9.3,15.1,15.6c3.9,6.3,6.8,13.3,8.6,21
		c1.8,7.7,2.7,15.1,2.7,22.4c0,8.7-1.2,17.6-3.6,26.6c-2.4,9-6,17.2-10.8,24.4c-4.8,7.2-11,13.2-18.5,17.8c-7.5,4.7-16.3,7-26.2,7
		c-18.7,0-33.5-5.5-44.5-16.5c-11-11-16.5-25.8-16.5-44.5c0-9.9,1.7-19.7,5.2-29.4c3.5-9.6,8.4-18.1,14.7-25.5
		c6.3-7.4,13.9-13.4,22.8-18.1C318.6,217.5,328.4,215.1,338.9,215.1z M328.1,338c7.5,0,13.8-1.9,19-5.6c5.1-3.8,9.3-8.4,12.6-14
		c3.3-5.6,5.7-11.7,7.2-18.5c1.5-6.8,2.3-13.3,2.3-19.6c0-4.5-0.5-9.6-1.6-15.1c-1.1-5.6-2.7-10.7-5-15.4c-2.3-4.7-5.3-8.6-9.3-11.7
		c-3.9-3.2-8.7-4.7-14.5-4.7c-6.3,0-11.8,2.3-16.5,7c-4.7,4.7-8.4,10.4-11.3,17.2c-2.9,6.8-5,13.8-6.3,21c-1.4,7.2-2,13.4-2,18.5
		c0,4.2,0.4,8.7,1.1,13.3c0.7,4.7,2,9.1,3.8,13.3c1.8,4.2,4.4,7.7,7.7,10.4C318.7,336.6,322.9,338,328.1,338z"/>
	<path class="st1" d="M471.7,215.1c8.4,0,15.7,2,21.9,6.1c6.2,4.1,11.2,9.3,15.1,15.6c3.9,6.3,6.8,13.3,8.6,21
		c1.8,7.7,2.7,15.1,2.7,22.4c0,8.7-1.2,17.6-3.6,26.6c-2.4,9-6,17.2-10.8,24.4c-4.8,7.2-11,13.2-18.5,17.8c-7.5,4.7-16.3,7-26.2,7
		c-18.7,0-33.5-5.5-44.5-16.5c-11-11-16.5-25.8-16.5-44.5c0-9.9,1.7-19.7,5.2-29.4c3.5-9.6,8.4-18.1,14.7-25.5
		c6.3-7.4,13.9-13.4,22.8-18.1C451.4,217.5,461.1,215.1,471.7,215.1z M460.8,338c7.5,0,13.8-1.9,19-5.6c5.1-3.8,9.3-8.4,12.6-14
		c3.3-5.6,5.7-11.7,7.2-18.5c1.5-6.8,2.3-13.3,2.3-19.6c0-4.5-0.5-9.6-1.6-15.1c-1.1-5.6-2.7-10.7-5-15.4c-2.3-4.7-5.3-8.6-9.3-11.7
		c-3.9-3.2-8.7-4.7-14.5-4.7c-6.3,0-11.8,2.3-16.5,7c-4.7,4.7-8.4,10.4-11.3,17.2c-2.9,6.8-5,13.8-6.3,21c-1.4,7.2-2,13.4-2,18.5
		c0,4.2,0.4,8.7,1.1,13.3c0.7,4.7,2,9.1,3.8,13.3c1.8,4.2,4.4,7.7,7.7,10.4C451.5,336.6,455.7,338,460.8,338z"/>
	<path class="st1" d="M629.5,214.2c8.5,0,15.4,2.3,20.9,6.8c5.4,4.5,9.8,10.2,12.9,16.9c3.2,6.8,5.4,14,6.8,21.7
		c1.4,7.7,2,14.8,2,21.5c0,4.5-0.7,10.9-2,19.2c-1.4,8.3-3.5,16.5-6.5,24.6c-3,8.1-6.7,15.2-11.1,21.2c-4.4,6-9.7,9-16,9
		c-1.5,0-3.4-0.6-5.6-1.8c-2.3-1.2-3.4-3.8-3.4-7.7c0-0.9,0.3-2.2,0.9-3.8c0.6-1.7,1.4-3.8,2.3-6.5c1.8-5.4,3.7-13.2,5.6-23.5
		c2-10.2,2.9-23.9,2.9-41.1c0-1.2-0.1-3.9-0.2-8.1c-0.2-4.2-0.6-8.6-1.4-13.1c-0.8-4.5-1.7-8.5-2.9-12c-1.2-3.5-2.9-5.2-5-5.2
		c-6.3,0-12,2.2-16.9,6.5c-5,4.4-9.4,10.1-13.3,17.2c-3.9,7.1-7.4,15-10.4,23.7c-3,8.7-5.6,17.3-7.7,25.7
		c-2.1,8.4-3.8,16.3-5.2,23.7c-1.4,7.4-2.3,13.3-2.9,17.8c-0.9,5.4-3.9,8.1-9,8.1c-6.3,0-11.5-2.9-15.6-8.6
		c-4.1-5.7-7.2-12.6-9.3-20.5c-2.1-8-3.5-16-4.3-24.2c-0.8-8.1-1.1-14.6-1.1-19.4c0-4.2,0.3-9.6,0.9-16c0.6-6.5,1.8-12.8,3.6-19
		c1.8-6.2,4.4-11.5,7.8-16c3.4-4.5,8-6.8,13.6-6.8s8.5,3.9,8.5,11.7c0,3.6,0.1,7.6,0.2,12c0.1,4.4,0.2,8.6,0.2,12.6
		s0.1,7.8,0.2,11.1c0.1,3.3,0.2,5.9,0.2,7.7c2.1-6.6,4.9-13.8,8.4-21.5c3.5-7.7,7.6-14.7,12.5-21.2c4.8-6.5,10.5-11.9,17-16.3
		C613.6,216.4,621.1,214.2,629.5,214.2z"/>
</g>
<g class="st0">
	<path class="st1" d="M730.4,220.6c0,3.3,0.1,8.5,0.2,15.6c0.1,7.1,0.5,14.9,1.1,23.5c0.6,8.6,1.4,17.4,2.5,26.4
		c1.1,9,2.4,17.2,4.1,24.6c1.7,7.4,3.6,13.5,5.9,18.3c2.3,4.8,4.9,7.2,7.9,7.2c6.6,0,9.9,2.9,9.9,8.6c0,2.4-0.8,4.6-2.5,6.5
		c-1.7,2-3.7,2.9-6.1,2.9c-9.6,0-17.8-2.9-24.5-8.6c-6.7-5.7-12.2-13.1-16.6-22.1c-4.3-9-7.7-19.2-10-30.5
		c-2.4-11.3-4.2-22.6-5.3-33.9c-1.2-11.3-1.9-22-2-32.1c-0.1-10.1-0.2-18.6-0.2-25.5c0-8.4,0.1-16.9,0.5-25.3
		c0.3-8.4,0.7-17,1.4-25.7l-22.6,2.7c-2.1,0-4.2-0.7-6.3-2c-2.1-1.4-3.2-3.2-3.2-5.6c0-5.4,2.4-8.9,7.2-10.4c3.9-1.2,8.4-1.9,13.5-2
		c5.1-0.1,9.3-0.5,12.6-1.1c1.8-21.7,4-43.4,6.7-65c0-2.1,0.8-3.9,2.4-5.4c1.6-1.5,4.2-2.3,7.8-2.3c3.9,0.3,6.8,2.5,8.9,6.5
		c2.1,4.1,3.7,9,4.9,14.7c1.2,5.7,1.9,11.8,2.2,18.3c0.3,6.5,0.4,12.4,0.4,17.8v10.8l28-3.6c2.4,0,4.5,0.8,6.3,2.3
		c1.8,1.5,2.7,3.5,2.7,5.9c0,2.7-0.8,5-2.3,7c-1.5,2-3.6,3.1-6.3,3.4c-4.8,0.6-9.9,1.2-15.4,1.8c-5.4,0.6-9.8,1.2-13.1,1.8
		c-0.6,7.5-0.9,15-0.9,22.4c0,7.4,0,14.8,0,22.4V220.6z"/>
</g>
<g class="st0">
	<path class="st1" d="M836.1,215.1c8.4,0,15.7,2,21.9,6.1c6.2,4.1,11.2,9.3,15.1,15.6c3.9,6.3,6.8,13.3,8.6,21
		c1.8,7.7,2.7,15.1,2.7,22.4c0,8.7-1.2,17.6-3.6,26.6c-2.4,9-6,17.2-10.8,24.4c-4.8,7.2-11,13.2-18.5,17.8c-7.5,4.7-16.3,7-26.2,7
		c-18.7,0-33.5-5.5-44.5-16.5c-11-11-16.5-25.8-16.5-44.5c0-9.9,1.7-19.7,5.2-29.4c3.5-9.6,8.4-18.1,14.7-25.5
		c6.3-7.4,13.9-13.4,22.8-18.1C815.9,217.5,825.6,215.1,836.1,215.1z M825.3,338c7.5,0,13.8-1.9,19-5.6c5.1-3.8,9.3-8.4,12.6-14
		c3.3-5.6,5.7-11.7,7.2-18.5c1.5-6.8,2.3-13.3,2.3-19.6c0-4.5-0.5-9.6-1.6-15.1c-1.1-5.6-2.7-10.7-5-15.4c-2.3-4.7-5.3-8.6-9.3-11.7
		c-3.9-3.2-8.7-4.7-14.5-4.7c-6.3,0-11.8,2.3-16.5,7c-4.7,4.7-8.4,10.4-11.3,17.2c-2.9,6.8-5,13.8-6.3,21c-1.4,7.2-2,13.4-2,18.5
		c0,4.2,0.4,8.7,1.1,13.3c0.7,4.7,2,9.1,3.8,13.3c1.8,4.2,4.4,7.7,7.7,10.4C816,336.6,820.2,338,825.3,338z"/>
	<path class="st1" d="M968.9,215.1c8.4,0,15.7,2,21.9,6.1c6.2,4.1,11.2,9.3,15.1,15.6c3.9,6.3,6.8,13.3,8.6,21
		c1.8,7.7,2.7,15.1,2.7,22.4c0,8.7-1.2,17.6-3.6,26.6c-2.4,9-6,17.2-10.8,24.4c-4.8,7.2-11,13.2-18.5,17.8c-7.5,4.7-16.3,7-26.2,7
		c-18.7,0-33.5-5.5-44.5-16.5c-11-11-16.5-25.8-16.5-44.5c0-9.9,1.7-19.7,5.2-29.4c3.5-9.6,8.4-18.1,14.7-25.5
		c6.3-7.4,13.9-13.4,22.8-18.1C948.7,217.5,958.4,215.1,968.9,215.1z M958.1,338c7.5,0,13.8-1.9,19-5.6c5.1-3.8,9.3-8.4,12.6-14
		c3.3-5.6,5.7-11.7,7.2-18.5c1.5-6.8,2.3-13.3,2.3-19.6c0-4.5-0.5-9.6-1.6-15.1c-1.1-5.6-2.7-10.7-5-15.4c-2.3-4.7-5.3-8.6-9.3-11.7
		c-3.9-3.2-8.7-4.7-14.5-4.7c-6.3,0-11.8,2.3-16.5,7c-4.7,4.7-8.4,10.4-11.3,17.2c-2.9,6.8-5,13.8-6.3,21c-1.4,7.2-2,13.4-2,18.5
		c0,4.2,0.4,8.7,1.1,13.3c0.7,4.7,2,9.1,3.8,13.3c1.8,4.2,4.4,7.7,7.7,10.4C948.7,336.6,952.9,338,958.1,338z"/>
</g>
<g class="st0">
	<path class="st2" d="M42.9,237c0,5.7,1.7,10.5,5.2,14.3c3.5,3.8,7.7,7.1,12.9,10c5.1,2.9,10.6,5.6,16.5,8.2
		c5.9,2.6,11.4,5.5,16.5,8.8c5.1,3.3,9.4,7.3,12.9,11.8c3.5,4.5,5.2,10.3,5.2,17.2c0,7-2.2,12.8-6.5,17.5c-4.3,4.7-9.7,8.5-16,11.3
		c-6.3,2.9-13,4.9-20,6.1c-7,1.2-13.3,1.8-18.7,1.8c-5.4,0-10.7-0.7-16-2.3c-5.2-1.5-9.9-3.8-13.9-6.8c-4.1-3-7.3-6.8-9.9-11.5
		c-2.5-4.7-3.8-10-3.8-16c0-2.4,0.9-4.5,2.6-6.3s3.8-2.7,6.2-2.7c3.2,0,5.6,1.1,7,3.4c1.5,2.3,2.2,4.9,2.2,7.9c0,4.2,1.9,8,5.7,11.3
		c3.8,3.3,9.9,5,18.4,5c2.7,0,5.8-0.3,9.3-0.9c3.5-0.6,6.8-1.7,9.8-3.2c3-1.5,5.5-3.4,7.5-5.6c2-2.3,3-5.2,3-8.8
		c0-3.9-1.8-7.4-5.4-10.4c-3.6-3-8.1-5.8-13.3-8.4c-5.3-2.6-11-5.3-17.2-8.1c-6.2-2.9-11.9-6.3-17.2-10.4
		c-5.3-4.1-9.7-8.8-13.3-14.2c-3.6-5.4-5.4-12-5.4-19.9c0-5.1,1.2-9.6,3.6-13.5c2.4-3.9,5.6-7.1,9.7-9.7c4.1-2.6,8.8-4.5,14.2-5.9
		c5.4-1.4,11-2,16.7-2c6.6,0,13.2,0.9,19.9,2.6c6.6,1.8,12.6,4.4,17.8,7.9c5.3,3.5,9.6,7.9,12.9,13.2c3.3,5.2,5,11.5,5,18.7
		c0,2.4-0.9,4.5-2.8,6.3c-1.9,1.8-4,2.7-6.5,2.7c-5.9,0-8.8-3.2-8.8-9.5c0-7.5-3.2-13.4-9.7-17.6c-6.5-4.2-13-6.3-19.6-6.3
		c-4.5,0-8.4,1.1-11.7,3.4C44.6,228.6,42.9,232.1,42.9,237z"/>
	<path class="st2" d="M218.6,206.7c6.6,0,12.2,1.4,16.7,4.1c4.5,2.7,8.2,6.3,11.1,10.8c2.9,4.5,5,9.6,6.3,15.1
		c1.4,5.6,2,11.2,2,16.9c0,11.4-1.9,22.5-5.6,33.2c-3.8,10.7-9.1,20.2-16,28.5c-6.9,8.3-15.2,15-24.8,20.1
		c-9.6,5.1-20.3,7.7-32.1,7.7c-0.6,0-1.8,0.1-3.6,0.2c-1.8,0.2-5.3-0.1-10.4-0.7c-0.6,17.5-1.1,35.2-1.6,53.3
		c-0.5,18.1-1.4,36-2.9,53.7c-0.3,2.4-1.3,4.4-2.9,6.1c-1.7,1.7-3.7,2.5-6.1,2.5c-3.6,0-6.6-2.5-9-7.5c-2.4-5-4.4-11.3-6.1-19
		c-1.7-7.7-2.9-16.2-3.8-25.5c-0.9-9.3-1.6-18.4-2-27.1c-0.5-8.7-0.7-16.6-0.7-23.5c0-6.9,0-11.9,0-14.9s0.1-8.3,0.2-15.8
		c0.1-7.5,0.5-16,0.9-25.3c0.5-9.3,1.2-19,2.3-29.1c1.1-10.1,2.5-19.3,4.3-27.8c1.8-8.4,4.1-15.4,6.8-20.8c2.7-5.4,6-8.1,9.9-8.1
		c3,0,5.3,1.1,7,3.4c1.7,2.3,2.7,5,3.2,8.4c0.5,3.3,0.7,6.7,0.7,10.2c0,3.5,0,6.3,0,8.4c3.3-4.5,7-9,11.1-13.3
		c4.1-4.4,8.4-8.4,13.1-12c4.7-3.6,9.7-6.5,15.1-8.8C206.8,207.8,212.6,206.7,218.6,206.7z M163,276.2c0,8.1,0,16.2,0,24.2
		c0,8-0.2,16-0.5,24.2L173,325c8.1,0.3,15.2-2.6,21.2-8.8c6-6.2,10.9-13.6,14.7-22.4c3.8-8.7,6.6-17.9,8.6-27.5
		c2-9.6,2.9-17.6,2.9-23.9s-0.9-12.2-2.7-17.6c-6,0.3-11.7,2.3-17.2,6.1c-5.4,3.8-10.5,8.2-15.1,13.3c-4.7,5.1-8.9,10.6-12.6,16.5
		C169,266.5,165.7,271.7,163,276.2z"/>
	<path class="st2" d="M333.7,204.8c8.4,0,15.7,2,21.9,6.1c6.2,4.1,11.2,9.3,15.1,15.6c3.9,6.3,6.8,13.3,8.6,21s2.7,15.1,2.7,22.4
		c0,8.7-1.2,17.6-3.6,26.6c-2.4,9-6,17.2-10.8,24.4c-4.8,7.2-11,13.2-18.5,17.8c-7.5,4.7-16.3,7-26.2,7c-18.7,0-33.5-5.5-44.5-16.5
		c-11-11-16.5-25.8-16.5-44.5c0-9.9,1.7-19.7,5.2-29.4c3.5-9.6,8.4-18.1,14.7-25.5c6.3-7.4,13.9-13.4,22.8-18.1
		C313.5,207.2,323.2,204.8,333.7,204.8z M322.9,327.7c7.5,0,13.8-1.9,19-5.6c5.1-3.8,9.3-8.4,12.6-14c3.3-5.6,5.7-11.7,7.2-18.5
		c1.5-6.8,2.3-13.3,2.3-19.6c0-4.5-0.5-9.6-1.6-15.1c-1.1-5.6-2.7-10.7-5-15.4c-2.3-4.7-5.3-8.6-9.3-11.7c-3.9-3.2-8.7-4.7-14.5-4.7
		c-6.3,0-11.8,2.3-16.5,7c-4.7,4.7-8.4,10.4-11.3,17.2c-2.9,6.8-5,13.8-6.3,21c-1.4,7.2-2,13.4-2,18.5c0,4.2,0.4,8.7,1.1,13.3
		c0.7,4.7,2,9.1,3.8,13.3c1.8,4.2,4.4,7.7,7.7,10.4C313.6,326.3,317.8,327.7,322.9,327.7z"/>
	<path class="st2" d="M466.5,204.8c8.4,0,15.7,2,21.9,6.1c6.2,4.1,11.2,9.3,15.1,15.6c3.9,6.3,6.8,13.3,8.6,21s2.7,15.1,2.7,22.4
		c0,8.7-1.2,17.6-3.6,26.6c-2.4,9-6,17.2-10.8,24.4c-4.8,7.2-11,13.2-18.5,17.8c-7.5,4.7-16.3,7-26.2,7c-18.7,0-33.5-5.5-44.5-16.5
		c-11-11-16.5-25.8-16.5-44.5c0-9.9,1.7-19.7,5.2-29.4c3.5-9.6,8.4-18.1,14.7-25.5c6.3-7.4,13.9-13.4,22.8-18.1
		C446.3,207.2,456,204.8,466.5,204.8z M455.7,327.7c7.5,0,13.8-1.9,19-5.6c5.1-3.8,9.3-8.4,12.6-14c3.3-5.6,5.7-11.7,7.2-18.5
		c1.5-6.8,2.3-13.3,2.3-19.6c0-4.5-0.5-9.6-1.6-15.1c-1.1-5.6-2.7-10.7-5-15.4c-2.3-4.7-5.3-8.6-9.3-11.7c-3.9-3.2-8.7-4.7-14.5-4.7
		c-6.3,0-11.8,2.3-16.5,7c-4.7,4.7-8.4,10.4-11.3,17.2c-2.9,6.8-5,13.8-6.3,21c-1.4,7.2-2,13.4-2,18.5c0,4.2,0.4,8.7,1.1,13.3
		c0.7,4.7,2,9.1,3.8,13.3c1.8,4.2,4.4,7.7,7.7,10.4C446.3,326.3,450.6,327.7,455.7,327.7z"/>
	<path class="st2" d="M624.4,203.9c8.5,0,15.4,2.3,20.9,6.8c5.4,4.5,9.8,10.2,12.9,16.9c3.2,6.8,5.4,14,6.8,21.7
		c1.4,7.7,2,14.8,2,21.5c0,4.5-0.7,10.9-2,19.2c-1.4,8.3-3.5,16.5-6.5,24.6c-3,8.1-6.7,15.2-11.1,21.2c-4.4,6-9.7,9-16,9
		c-1.5,0-3.4-0.6-5.6-1.8c-2.3-1.2-3.4-3.8-3.4-7.7c0-0.9,0.3-2.2,0.9-3.8c0.6-1.7,1.4-3.8,2.3-6.5c1.8-5.4,3.7-13.2,5.6-23.5
		c2-10.2,2.9-23.9,2.9-41.1c0-1.2-0.1-3.9-0.2-8.1c-0.2-4.2-0.6-8.6-1.4-13.1c-0.8-4.5-1.7-8.5-2.9-12c-1.2-3.5-2.9-5.2-5-5.2
		c-6.3,0-12,2.2-16.9,6.5c-5,4.4-9.4,10.1-13.3,17.2c-3.9,7.1-7.4,15-10.4,23.7c-3,8.7-5.6,17.3-7.7,25.7
		c-2.1,8.4-3.8,16.3-5.2,23.7c-1.4,7.4-2.3,13.3-2.9,17.8c-0.9,5.4-3.9,8.1-9,8.1c-6.3,0-11.5-2.9-15.6-8.6
		c-4.1-5.7-7.2-12.6-9.3-20.5c-2.1-8-3.5-16-4.3-24.2c-0.8-8.1-1.1-14.6-1.1-19.4c0-4.2,0.3-9.6,0.9-16c0.6-6.5,1.8-12.8,3.6-19
		c1.8-6.2,4.4-11.5,7.8-16c3.4-4.5,8-6.8,13.6-6.8s8.5,3.9,8.5,11.7c0,3.6,0.1,7.6,0.2,12c0.1,4.4,0.2,8.6,0.2,12.6
		c0,4.1,0.1,7.8,0.2,11.1c0.1,3.3,0.2,5.9,0.2,7.7c2.1-6.6,4.9-13.8,8.4-21.5c3.5-7.7,7.6-14.7,12.5-21.2c4.8-6.5,10.5-11.9,17-16.3
		C608.5,206.1,615.9,203.9,624.4,203.9z"/>
</g>
<g class="st0">
	<path class="st2" d="M725.3,210.3c0,3.3,0.1,8.5,0.2,15.6c0.1,7.1,0.5,14.9,1.1,23.5c0.6,8.6,1.4,17.4,2.5,26.4
		c1.1,9,2.4,17.2,4.1,24.6c1.7,7.4,3.6,13.5,5.9,18.3c2.3,4.8,4.9,7.2,7.9,7.2c6.6,0,9.9,2.9,9.9,8.6c0,2.4-0.8,4.6-2.5,6.5
		c-1.7,2-3.7,2.9-6.1,2.9c-9.6,0-17.8-2.9-24.5-8.6c-6.7-5.7-12.2-13.1-16.6-22.1c-4.3-9-7.7-19.2-10-30.5s-4.2-22.6-5.3-33.9
		c-1.2-11.3-1.9-22-2-32.1c-0.1-10.1-0.2-18.6-0.2-25.5c0-8.4,0.1-16.9,0.5-25.3c0.3-8.4,0.7-17,1.4-25.7l-22.6,2.7
		c-2.1,0-4.2-0.7-6.3-2c-2.1-1.4-3.2-3.2-3.2-5.6c0-5.4,2.4-8.9,7.2-10.4c3.9-1.2,8.4-1.9,13.5-2c5.1-0.1,9.3-0.5,12.6-1.1
		c1.8-21.7,4-43.4,6.7-65c0-2.1,0.8-3.9,2.4-5.4c1.6-1.5,4.2-2.3,7.8-2.3c3.9,0.3,6.8,2.5,8.9,6.5c2.1,4.1,3.7,9,4.9,14.7
		c1.2,5.7,1.9,11.8,2.2,18.3c0.3,6.5,0.4,12.4,0.4,17.8v10.8l28-3.6c2.4,0,4.5,0.8,6.3,2.3c1.8,1.5,2.7,3.5,2.7,5.9
		c0,2.7-0.8,5-2.3,7c-1.5,2-3.6,3.1-6.3,3.4c-4.8,0.6-9.9,1.2-15.4,1.8c-5.4,0.6-9.8,1.2-13.1,1.8c-0.6,7.5-0.9,15-0.9,22.4
		c0,7.4,0,14.8,0,22.4V210.3z"/>
</g>
<g class="st0">
	<path class="st2" d="M831,204.8c8.4,0,15.7,2,21.9,6.1c6.2,4.1,11.2,9.3,15.1,15.6c3.9,6.3,6.8,13.3,8.6,21s2.7,15.1,2.7,22.4
		c0,8.7-1.2,17.6-3.6,26.6c-2.4,9-6,17.2-10.8,24.4c-4.8,7.2-11,13.2-18.5,17.8c-7.5,4.7-16.3,7-26.2,7c-18.7,0-33.5-5.5-44.5-16.5
		c-11-11-16.5-25.8-16.5-44.5c0-9.9,1.7-19.7,5.2-29.4c3.5-9.6,8.4-18.1,14.7-25.5c6.3-7.4,13.9-13.4,22.8-18.1
		C810.7,207.2,820.4,204.8,831,204.8z M820.1,327.7c7.5,0,13.8-1.9,19-5.6c5.1-3.8,9.3-8.4,12.6-14c3.3-5.6,5.7-11.7,7.2-18.5
		c1.5-6.8,2.3-13.3,2.3-19.6c0-4.5-0.5-9.6-1.6-15.1c-1.1-5.6-2.7-10.7-5-15.4c-2.3-4.7-5.3-8.6-9.3-11.7c-3.9-3.2-8.7-4.7-14.5-4.7
		c-6.3,0-11.8,2.3-16.5,7c-4.7,4.7-8.4,10.4-11.3,17.2c-2.9,6.8-5,13.8-6.3,21c-1.4,7.2-2,13.4-2,18.5c0,4.2,0.4,8.7,1.1,13.3
		c0.7,4.7,2,9.1,3.8,13.3c1.8,4.2,4.4,7.7,7.7,10.4C810.8,326.3,815,327.7,820.1,327.7z"/>
	<path class="st2" d="M963.8,204.8c8.4,0,15.7,2,21.9,6.1c6.2,4.1,11.2,9.3,15.1,15.6c3.9,6.3,6.8,13.3,8.6,21s2.7,15.1,2.7,22.4
		c0,8.7-1.2,17.6-3.6,26.6c-2.4,9-6,17.2-10.8,24.4c-4.8,7.2-11,13.2-18.5,17.8c-7.5,4.7-16.3,7-26.2,7c-18.7,0-33.5-5.5-44.5-16.5
		c-11-11-16.5-25.8-16.5-44.5c0-9.9,1.7-19.7,5.2-29.4c3.5-9.6,8.4-18.1,14.7-25.5c6.3-7.4,13.9-13.4,22.8-18.1
		C943.5,207.2,953.2,204.8,963.8,204.8z M952.9,327.7c7.5,0,13.8-1.9,19-5.6c5.1-3.8,9.3-8.4,12.6-14c3.3-5.6,5.7-11.7,7.2-18.5
		c1.5-6.8,2.3-13.3,2.3-19.6c0-4.5-0.5-9.6-1.6-15.1c-1.1-5.6-2.7-10.7-5-15.4c-2.3-4.7-5.3-8.6-9.3-11.7c-3.9-3.2-8.7-4.7-14.5-4.7
		c-6.3,0-11.8,2.3-16.5,7c-4.7,4.7-8.4,10.4-11.3,17.2c-2.9,6.8-5,13.8-6.3,21c-1.4,7.2-2,13.4-2,18.5c0,4.2,0.4,8.7,1.1,13.3
		c0.7,4.7,2,9.1,3.8,13.3c1.8,4.2,4.4,7.7,7.7,10.4C943.6,326.3,947.8,327.7,952.9,327.7z"/>
</g>
</svg>
