<svg id="Layer_1" data-name="Layer 1" xmlns="http://www.w3.org/2000/svg" viewBox="0 0 512 1024"><defs><style>.cls-1{fill:#fff;}.cls-2{fill:#fcbf49;}.cls-3{fill:#003049;}</style></defs><path class="cls-1" d="M256,36.53c-94.09,1-113.32,171-102.19,236.76,9.32,55.09,60.52,88.87,76.9,98.39a9.58,9.58,0,0,1,4.75,8.57L218.07,976.13c-.73,25,16.17,45.87,37.42,45.87s38.16-20.84,37.42-45.87L275.53,380.29a9.56,9.56,0,0,1,4.8-8.6c16.59-9.5,68.53-43.29,77.86-98.4C369.32,207.52,350.09,37.55,256,36.53Zm0,194.31c-37.65,0-37.27-31.49-37.27-31.49h74.54S293.65,230.84,256,230.84Z"/><path class="cls-2" d="M203,45.23h0a83.57,83.57,0,0,1,32-16.85h0C235.79,12.73,223.3,2,223.3,2c1.66,9.17-4.57,15.61-4.57,15.61-5-12.1-18-15.61-18-15.61,12.1,11.71,6.36,26.54,6.36,26.54-14.72-7.8-31.73-4.68-31.73-4.68C197.64,27.76,203,45.23,203,45.23Z"/><path class="cls-3" d="M311.38,124.1a12.72,12.72,0,1,1,12.72,12.72A12.71,12.71,0,0,1,311.38,124.1Zm-91.55,12.72a12.72,12.72,0,1,0-12.71-12.72A12.73,12.73,0,0,0,219.83,136.82Zm151.7-12.72a56.6,56.6,0,0,1-112.93,5.48h-5.2a56.6,56.6,0,1,1,0-11h5.2a56.6,56.6,0,0,1,112.93,5.47Zm-126.63,0a47.84,47.84,0,1,0-47.83,47.84A47.89,47.89,0,0,0,244.9,124.1Zm117.87,0a47.84,47.84,0,1,0-47.84,47.84A47.89,47.89,0,0,0,362.77,124.1Z"/></svg>